{
  "accessors": [
    {
      "bufferView": 2,
      "componentType": 5126,
      "count": 1153,
      "max": [
        0.3332577645778656,
        0.2661789655685425,
        0.4255736172199249
      ],
      "min": [
        -0.28824976086616516,
        -0.24930787086486816,
        -0.4367236793041229
      ],
      "type": "VEC3"
    },
    {
      "bufferView": 2,
      "byteOffset": 13836,
      "componentType": 5126,
      "count": 1153,
      "max": [
        0.9992510080337524,
        0.999992311000824,
        0.996658205986023
      ],
      "min": [
        -0.9988759756088257,
        -0.9996495842933655,
        -0.9990230798721313
      ],
      "type": "VEC3"
    },
    {
      "bufferView": 1,
      "componentType": 5126,
      "count": 1153,
      "max": [
        0.9919137954711914,
        0.993800163269043
      ],
      "min": [
        0.0032285302877426147,
        0.0032285451889038086
      ],
      "type": "VEC2"
    },
    {
      "bufferView": 0,
      "componentType": 5125,
      "count": 4578,
      "type": "SCALAR"
    }
  ],
  "asset": {
    "extras": {
      "author": "klrxyz (https://sketchfab.com/klrxyz)",
      "license": "CC-BY-4.0 (http://creativecommons.org/licenses/by/4.0/)",
      "source": "https://sketchfab.com/3d-models/azure-frost-a-tale-of-the-electric-blue-stuffed-11a5835a4466410294502b9347501f7d",
      "title": "Azure Frost A Tale of the Electric Blue Stuffed"
    },
    "generator": "Sketchfab-16.7.0",
    "version": "2.0"
  },
  "bufferViews": [
    {
      "buffer": 0,
      "byteLength": 18312,
      "name": "floatBufferViews",
      "target": 34963
    },
    {
      "buffer": 0,
      "byteLength": 9224,
      "byteOffset": 18312,
      "byteStride": 8,
      "name": "floatBufferViews",
      "target": 34962
    },
    {
      "buffer": 0,
      "byteLength": 27672,
      "byteOffset": 27536,
      "byteStride": 12,
      "name": "floatBufferViews",
      "target": 34962
    }
  ],
  "buffers": [
    {
      "byteLength": 55208,
      "uri": "scene.bin"
    }
  ],
  "images": [
    {
      "uri": "textures/SimplygonCastMaterial_baseColor.png"
    }
  ],
  "materials": [
    {
      "doubleSided": true,
      "name": "SimplygonCastMaterial",
      "pbrMetallicRoughness": {
        "baseColorTexture": {
          "index": 0
        },
        "metallicFactor": 0.0
      }
    }
  ],
  "meshes": [
    {
      "name": "ProcessedMeshNode_LOD1_SimplygonCastMaterial_0",
      "primitives": [
        {
          "attributes": {
            "NORMAL": 1,
            "POSITION": 0,
            "TEXCOORD_0": 2
          },
          "indices": 3,
          "material": 0,
          "mode": 4
        }
      ]
    }
  ],
  "nodes": [
    {
      "children": [
        1
      ],
      "matrix": [
        1.0,
        0.0,
        0.0,
        0.0,
        0.0,
        2.220446049250313e-16,
        -1.0,
        0.0,
        0.0,
        1.0,
        2.220446049250313e-16,
        0.0,
        0.0,
        0.0,
        0.0,
        1.0
      ],
      "name": "Sketchfab_model"
    },
    {
      "children": [
        2
      ],
      "matrix": [
        0.009999999776482582,
        0.0,
        0.0,
        0.0,
        0.0,
        0.0,
        0.009999999776482582,
        0.0,
        0.0,
        -0.009999999776482582,
        0.0,
        0.0,
        0.0,
        0.0,
        0.0,
        1.0
      ],
      "name": "final.fbx"
    },
    {
      "children": [
        3
      ],
      "name": "RootNode"
    },
    {
      "children": [
        4
      ],
      "matrix": [
        4.3711386728180365e-06,
        1.1102229399218618e-14,
        99.99999237060538,
        0.0,
        99.99999237060528,
        -4.3711386728180365e-06,
        -4.371138678369152e-06,
        0.0,
        4.371139011860592e-06,
        99.99999999999991,
        -1.9984014443252818e-13,
        0.0,
        0.0,
        0.0,
        0.0,
        1.0
      ],
      "name": "ProcessedMeshNode_LOD1"
    },
    {
      "mesh": 0,
      "name": "ProcessedMeshNode_LOD1_SimplygonCastMaterial_0"
    }
  ],
  "samplers": [
    {
      "magFilter": 9729,
      "minFilter": 9987,
      "wrapS": 10497,
      "wrapT": 10497
    }
  ],
  "scene": 0,
  "scenes": [
    {
      "name": "Sketchfab_Scene",
      "nodes": [
        0
      ]
    }
  ],
  "textures": [
    {
      "sampler": 0,
      "source": 0
    }
  ]
}
