{
  "accessors": [
    {
      "bufferView": 2,
      "componentType": 5126,
      "count": 2092,
      "max": [
        3.5139830112457275,
        7.916055202484131,
        2.878542900085449
      ],
      "min": [
        -3.5139830112457275,
        -0.00481100007891655,
        -1.956725001335144
      ],
      "type": "VEC3"
    },
    {
      "bufferView": 2,
      "byteOffset": 25104,
      "componentType": 5126,
      "count": 2092,
      "max": [
        0.999446451663971,
        0.9984724521636963,
        0.999993622303009
      ],
      "min": [
        -0.999446451663971,
        -0.9999727606773376,
        -0.9995568990707397
      ],
      "type": "VEC3"
    },
    {
      "bufferView": 3,
      "componentType": 5126,
      "count": 2092,
      "max": [
        1.0,
        0.9971836805343628,
        0.9998918771743774,
        1.0
      ],
      "min": [
        -1.0,
        -0.997182309627533,
        -0.9998549222946167,
        -1.0
      ],
      "type": "VEC4"
    },
    {
      "bufferView": 1,
      "componentType": 5126,
      "count": 2092,
      "max": [
        0.9948930144309998,
        0.9812750220298767
      ],
      "min": [
        0.016466999426484108,
        0.01431300025433302
      ],
      "type": "VEC2"
    },
    {
      "bufferView": 0,
      "componentType": 5125,
      "count": 9852,
      "type": "SCALAR"
    },
    {
      "bufferView": 2,
      "byteOffset": 50208,
      "componentType": 5126,
      "count": 452,
      "max": [
        1.7973239421844482,
        6.662508010864258,
        1.7642240524291992
      ],
      "min": [
        -0.20267599821090698,
        4.662508010864258,
        -0.23577499389648438
      ],
      "type": "VEC3"
    },
    {
      "bufferView": 2,
      "byteOffset": 55632,
      "componentType": 5126,
      "count": 452,
      "max": [
        1.0,
        1.0,
        1.0
      ],
      "min": [
        -1.0,
        -1.0,
        -1.0
      ],
      "type": "VEC3"
    },
    {
      "bufferView": 3,
      "byteOffset": 33472,
      "componentType": 5126,
      "count": 452,
      "max": [
        0.8910567164421082,
        0.8783761858940125,
        0.9030205011367798,
        1.0
      ],
      "min": [
        -0.9852524399757385,
        -0.9928050637245178,
        -0.9996498227119446,
        1.0
      ],
      "type": "VEC4"
    },
    {
      "bufferView": 1,
      "byteOffset": 16736,
      "componentType": 5126,
      "count": 452,
      "max": [
        0.46072301268577576,
        0.7758740186691284
      ],
      "min": [
        0.1324629932641983,
        0.4375799894332886
      ],
      "type": "VEC2"
    },
    {
      "bufferView": 0,
      "byteOffset": 39408,
      "componentType": 5125,
      "count": 2280,
      "type": "SCALAR"
    },
    {
      "bufferView": 2,
      "byteOffset": 61056,
      "componentType": 5126,
      "count": 452,
      "max": [
        0.238973006606102,
        6.662508010864258,
        1.7642240524291992
      ],
      "min": [
        -1.7610280513763428,
        4.662508010864258,
        -0.23577499389648438
      ],
      "type": "VEC3"
    },
    {
      "bufferView": 2,
      "byteOffset": 66480,
      "componentType": 5126,
      "count": 452,
      "max": [
        1.0,
        1.0,
        1.0
      ],
      "min": [
        -1.0,
        -1.0,
        -1.0
      ],
      "type": "VEC3"
    },
    {
      "bufferView": 3,
      "byteOffset": 40704,
      "componentType": 5126,
      "count": 452,
      "max": [
        0.8062791228294373,
        0.999131441116333,
        0.9999672174453735,
        1.0
      ],
      "min": [
        -0.985727071762085,
        -0.9314060211181641,
        -0.8980081677436829,
        1.0
      ],
      "type": "VEC4"
    },
    {
      "bufferView": 1,
      "byteOffset": 20352,
      "componentType": 5126,
      "count": 452,
      "max": [
        0.9375119805335999,
        0.7579259872436523
      ],
      "min": [
        0.6071140170097351,
        0.42350998520851135
      ],
      "type": "VEC2"
    },
    {
      "bufferView": 0,
      "byteOffset": 48528,
      "componentType": 5125,
      "count": 2280,
      "type": "SCALAR"
    }
  ],
  "asset": {
    "extras": {
      "author": "kand8998 (https://sketchfab.com/KaitlynAndrus)",
      "license": "CC-BY-4.0 (http://creativecommons.org/licenses/by/4.0/)",
      "source": "https://sketchfab.com/3d-models/stuffed-elephant-develeopment-phase-ii-24930d93592e4a8bbe9f8c63da8022cd",
      "title": "Stuffed Elephant Develeopment Phase II"
    },
    "generator": "Sketchfab-12.68.0",
    "version": "2.0"
  },
  "bufferViews": [
    {
      "buffer": 0,
      "byteLength": 57648,
      "name": "floatBufferViews",
      "target": 34963
    },
    {
      "buffer": 0,
      "byteLength": 23968,
      "byteOffset": 57648,
      "byteStride": 8,
      "name": "floatBufferViews",
      "target": 34962
    },
    {
      "buffer": 0,
      "byteLength": 71904,
      "byteOffset": 81616,
      "byteStride": 12,
      "name": "floatBufferViews",
      "target": 34962
    },
    {
      "buffer": 0,
      "byteLength": 47936,
      "byteOffset": 153520,
      "byteStride": 16,
      "name": "floatBufferViews",
      "target": 34962
    }
  ],
  "buffers": [
    {
      "byteLength": 201456,
      "uri": "scene.bin"
    }
  ],
  "images": [
    {
      "uri": "textures/Elephant_Shader1_baseColor.jpeg"
    },
    {
      "uri": "textures/Elephant_Shader1_metallicRoughness.png"
    },
    {
      "uri": "textures/Elephant_Shader1_normal.png"
    }
  ],
  "materials": [
    {
      "doubleSided": true,
      "name": "Elephant_Shader1",
      "normalTexture": {
        "index": 2
      },
      "occlusionTexture": {
        "index": 1
      },
      "pbrMetallicRoughness": {
        "baseColorTexture": {
          "index": 0
        },
        "metallicRoughnessTexture": {
          "index": 1
        }
      }
    }
  ],
  "meshes": [
    {
      "name": "defaultMaterial",
      "primitives": [
        {
          "attributes": {
            "NORMAL": 1,
            "POSITION": 0,
            "TANGENT": 2,
            "TEXCOORD_0": 3
          },
          "indices": 4,
          "material": 0,
          "mode": 4
        }
      ]
    },
    {
      "name": "defaultMaterial",
      "primitives": [
        {
          "attributes": {
            "NORMAL": 6,
            "POSITION": 5,
            "TANGENT": 7,
            "TEXCOORD_0": 8
          },
          "indices": 9,
          "material": 0,
          "mode": 4
        }
      ]
    },
    {
      "name": "defaultMaterial",
      "primitives": [
        {
          "attributes": {
            "NORMAL": 11,
            "POSITION": 10,
            "TANGENT": 12,
            "TEXCOORD_0": 13
          },
          "indices": 14,
          "material": 0,
          "mode": 4
        }
      ]
    }
  ],
  "nodes": [
    {
      "children": [
        1
      ],
      "matrix": [
        1.0,
        0.0,
        0.0,
        0.0,
        0.0,
        2.220446049250313e-16,
        -1.0,
        0.0,
        0.0,
        1.0,
        2.220446049250313e-16,
        0.0,
        0.0,
        0.0,
        0.0,
        1.0
      ],
      "name": "Sketchfab_model"
    },
    {
      "children": [
        2
      ],
      "matrix": [
        1.0,
        0.0,
        0.0,
        0.0,
        0.0,
        -4.371139006309477e-08,
        0.999999999999999,
        0.0,
        0.0,
        -0.999999999999999,
        -4.371139006309477e-08,
        0.0,
        0.0,
        0.0,
        0.0,
        1.0
      ],
      "name": "Collada visual scene group"
    },
    {
      "children": [
        3,
        5,
        7
      ],
      "name": "Elephant_Export"
    },
    {
      "children": [
        4
      ],
      "name": "Elephant_Geo_Low"
    },
    {
      "mesh": 0,
      "name": "defaultMaterial"
    },
    {
      "children": [
        6
      ],
      "name": "L_Eye_Geo_Low"
    },
    {
      "mesh": 1,
      "name": "defaultMaterial"
    },
    {
      "children": [
        8
      ],
      "name": "R_Eye_Geo_Low"
    },
    {
      "mesh": 2,
      "name": "defaultMaterial"
    }
  ],
  "samplers": [
    {
      "magFilter": 9729,
      "minFilter": 9987,
      "wrapS": 10497,
      "wrapT": 10497
    }
  ],
  "scene": 0,
  "scenes": [
    {
      "name": "Sketchfab_Scene",
      "nodes": [
        0
      ]
    }
  ],
  "textures": [
    {
      "sampler": 0,
      "source": 0
    },
    {
      "sampler": 0,
      "source": 1
    },
    {
      "sampler": 0,
      "source": 2
    }
  ]
}
